HIERARCHY
ROOT joint_Root
{
	OFFSET 0.0 0.0 0.0
	CHANNELS 6 Xposition Yposition Zposition Zrotation Xrotation Yrotation 
	JOINT Hips
	{
		OFFSET 4.5925 91.4895 -427.239
		CHANNELS 6 Xposition Yposition Zposition Zrotation Xrotation Yrotation 
		JOINT Spine
		{
			OFFSET 15.7357 0.0 0.0
			CHANNELS 6 Xposition Yposition Zposition Zrotation Xrotation Yrotation 
			JOINT Chest
			{
				OFFSET 8.98455 -0.406207 0.0
				CHANNELS 6 Xposition Yposition Zposition Zrotation Xrotation Yrotation 
				JOINT Neck
				{
					OFFSET 16.3773 0.0 0.0
					CHANNELS 6 Xposition Yposition Zposition Zrotation Xrotation Yrotation 
					JOINT Head
					{
						OFFSET 6.45672 0.0 0.0
						CHANNELS 6 Xposition Yposition Zposition Zrotation Xrotation Yrotation 
						End Site
						{
							OFFSET 0.0 0.0 0.0
						}
					}
				}
				JOINT Shoulder_L
				{
					OFFSET 12.9942 -0.242716 4.98039
					CHANNELS 6 Xposition Yposition Zposition Zrotation Xrotation Yrotation 
					JOINT UpperArm_L
					{
						OFFSET 5.34809 0.0 0.0
						CHANNELS 6 Xposition Yposition Zposition Zrotation Xrotation Yrotation 
						JOINT LowerArm_L
						{
							OFFSET 24.3286 1.87007e-05 0.0
							CHANNELS 6 Xposition Yposition Zposition Zrotation Xrotation Yrotation 
							JOINT Hand_L
							{
								OFFSET 22.2916 0.0 0.0
								CHANNELS 6 Xposition Yposition Zposition Zrotation Xrotation Yrotation 
								End Site
								{
									OFFSET 0.0 0.0 0.0
								}
							}
						}
					}
				}
				JOINT Shoulder_R
				{
					OFFSET 12.9945 -0.242716 -4.98039
					CHANNELS 6 Xposition Yposition Zposition Zrotation Xrotation Yrotation 
					JOINT UpperArm_R
					{
						OFFSET -5.34813 0.0 0.0
						CHANNELS 6 Xposition Yposition Zposition Zrotation Xrotation Yrotation 
						JOINT LowerArm_R
						{
							OFFSET -24.3289 0.000322201 0.0
							CHANNELS 6 Xposition Yposition Zposition Zrotation Xrotation Yrotation 
							JOINT Hand_R
							{
								OFFSET -22.2915 -0.000108084 0.0
								CHANNELS 6 Xposition Yposition Zposition Zrotation Xrotation Yrotation 
								End Site
								{
									OFFSET 0.0 0.0 0.0
								}
							}
						}
					}
				}
			}
		}
		JOINT UpperLeg_L
		{
			OFFSET -2.19248 -6.46944 0.0
			CHANNELS 6 Xposition Yposition Zposition Zrotation Xrotation Yrotation 
			JOINT LowerLeg_L
			{
				OFFSET 39.0811 0.0 -1.23785e-05
				CHANNELS 6 Xposition Yposition Zposition Zrotation Xrotation Yrotation 
				JOINT Foot_L
				{
					OFFSET 40.9854 0.0 -1.26872e-05
					CHANNELS 6 Xposition Yposition Zposition Zrotation Xrotation Yrotation 
					JOINT Toes_L
					{
						OFFSET 11.7543 0.0 0.0
						CHANNELS 6 Xposition Yposition Zposition Zrotation Xrotation Yrotation 
						End Site
						{
							OFFSET 0.0 0.0 0.0
						}
					}
				}
			}
		}
		JOINT UpperLeg_R
		{
			OFFSET -2.19251 6.46944 0.0
			CHANNELS 6 Xposition Yposition Zposition Zrotation Xrotation Yrotation 
			JOINT LowerLeg_R
			{
				OFFSET -39.0811 -0.00228153 -0.0401928
				CHANNELS 6 Xposition Yposition Zposition Zrotation Xrotation Yrotation 
				JOINT Foot_R
				{
					OFFSET -40.9854 0.0 0.0
					CHANNELS 6 Xposition Yposition Zposition Zrotation Xrotation Yrotation 
					JOINT Toes_R
					{
						OFFSET -11.7543 0.0 0.0
						CHANNELS 6 Xposition Yposition Zposition Zrotation Xrotation Yrotation 
						End Site
						{
							OFFSET 0.0 0.0 0.0
						}
					}
				}
			}
		}
	}
}
MOTION
Frames:	4
Frame Time:	0.0333333
0.000000 0.000000 0.000000 0.000000 0.000000 -0.000000 127.102000 90.188900 -16.395300 90.275000 2.157310 2.394820 15.735700 0.000005 -0.000001 89.576200 80.256100 -88.474900 8.984550 -0.406207 -0.000000 11.723300 -0.104956 2.212700 16.377300 -0.000001 -0.000001 0.385782 -5.285930 2.667420 6.456720 -0.000001 -0.000000 -3.418510 -4.598660 -1.327460 12.994200 -0.242716 4.980390 -90.925100 3.437420 -74.927100 5.348090 -0.000007 -0.000001 -61.456800 34.186200 -21.035000 24.328600 0.000019 0.000005 8.215430 13.567900 -31.609100 22.291600 -0.000001 0.000005 14.743800 5.235160 1.822710 12.994500 -0.242716 -4.980390 88.641200 9.999510 -82.221400 -5.348130 -0.000001 -0.000004 -58.352600 29.925300 -17.372800 -24.328900 0.000322 -0.000009 0.597384 1.865790 -17.795900 -22.291500 -0.000108 -0.000004 16.596900 5.381760 -2.353220 -2.192480 -6.469440 -0.000000 -177.643000 -6.846200 -20.925800 39.081100 -0.000007 -0.000012 0.051466 -0.033470 56.959800 40.985400 -0.000006 -0.000013 -0.583909 -2.471080 -65.481800 11.754300 -0.000000 0.000003 -0.003241 -0.043304 -18.338000 -2.192510 6.469440 -0.000001 -179.809000 19.694800 167.563000 -39.081100 -0.002282 -0.040193 0.008692 -0.007603 35.396000 -40.985400 0.000008 0.000006 8.151220 3.457570 -71.796600 -11.754300 -0.000006 -0.000006 -0.006059 -0.071373 -19.477900
0.000000 0.000000 0.000000 0.000000 0.000000 -0.000000 127.212000 90.417300 -15.261300 90.355000 1.305760 1.913030 15.735700 0.000005 -0.000001 90.591900 80.232200 -89.593200 8.984550 -0.406207 -0.000000 11.767300 0.234914 1.972640 16.377300 -0.000001 -0.000001 0.235618 -5.298780 2.739100 6.456720 -0.000001 -0.000000 -3.819960 -4.725320 -1.446490 12.994200 -0.242716 4.980390 -90.908400 3.362070 -74.871400 5.348090 -0.000007 -0.000001 -62.809900 35.312800 -19.061700 24.328600 0.000019 0.000005 7.979870 14.546100 -29.168800 22.291600 -0.000001 0.000005 13.495000 5.235140 1.822800 12.994500 -0.242716 -4.980390 88.727400 9.636720 -82.441000 -5.348130 -0.000001 -0.000004 -56.989600 30.031000 -19.909600 -24.328900 0.000322 -0.000009 0.360848 0.968433 -20.503500 -22.291500 -0.000108 -0.000004 17.386700 5.396780 -2.832070 -2.192480 -6.469440 -0.000000 -178.478000 -7.851430 -22.320600 39.081100 -0.000007 -0.000012 0.039859 -0.031239 51.909700 40.985400 -0.000006 -0.000013 -0.957683 -2.042630 -65.948200 11.754300 -0.000000 0.000003 -0.002971 -0.040283 -18.215000 -2.192510 6.469440 -0.000001 179.862000 19.985800 168.559000 -39.081100 -0.002282 -0.040193 0.007512 -0.006236 34.079900 -40.985400 0.000008 0.000006 8.126080 4.617590 -71.990900 -11.754300 -0.000006 -0.000006 -0.005903 -0.069954 -19.420000
0.000000 0.000000 0.000000 0.000000 0.000000 -0.000000 127.358000 90.578000 -14.110800 90.304700 0.584088 1.383610 15.735700 0.000005 -0.000001 91.522600 80.211600 -90.608200 8.984550 -0.406207 -0.000000 11.800600 0.547913 1.771570 16.377300 -0.000001 -0.000001 -0.002533 -5.343770 2.838780 6.456720 -0.000001 -0.000000 -4.237040 -4.790830 -1.495810 12.994200 -0.242716 4.980390 -90.925200 3.414220 -74.829000 5.348090 -0.000007 -0.000001 -64.175000 36.156300 -17.199800 24.328600 0.000019 0.000005 7.802000 15.988100 -26.449800 22.291600 -0.000001 0.000005 12.207100 5.232070 1.902330 12.994500 -0.242716 -4.980390 88.806100 9.280310 -82.636400 -5.348130 -0.000001 -0.000004 -55.711900 29.881800 -22.188400 -24.328900 0.000322 -0.000009 -0.062111 -0.139854 -23.372800 -22.291500 -0.000108 -0.000004 17.889800 5.411930 -3.327270 -2.192480 -6.469440 -0.000000 -179.204000 -8.715090 -23.261600 39.081100 -0.000007 -0.000012 0.027645 -0.027545 45.101300 40.985400 -0.000006 -0.000013 -1.169710 -1.251830 -64.781100 11.754300 -0.000000 0.000003 -0.002704 -0.037212 -18.090000 -2.192510 6.469440 -0.000001 179.639000 20.287100 169.466000 -39.081100 -0.002282 -0.040193 0.006709 -0.005274 32.906500 -40.985400 0.000008 0.000006 8.125970 5.634470 -72.277900 -11.754300 -0.000006 -0.000006 -0.005944 -0.070322 -19.435000
0.000000 0.000000 0.000000 0.000000 0.000000 -0.000000 127.552000 90.646400 -12.845200 90.115600 -0.072643 0.871090 15.735700 0.000005 -0.000001 92.448200 80.199100 -91.602900 8.984550 -0.406207 -0.000000 11.813000 0.860024 1.601300 16.377300 -0.000001 -0.000001 -0.248160 -5.357080 2.937390 6.456720 -0.000001 -0.000000 -4.584640 -4.835920 -1.425100 12.994200 -0.242716 4.980390 -90.950600 3.499090 -74.791200 5.348090 -0.000007 -0.000001 -65.690000 36.419500 -15.364500 24.328600 0.000019 0.000005 7.464060 17.453900 -23.597100 22.291600 -0.000001 0.000005 10.982600 5.229360 1.972130 12.994500 -0.242716 -4.980390 88.868600 9.038740 -82.835200 -5.348130 -0.000001 -0.000004 -54.316500 29.783900 -24.229400 -24.328900 0.000322 -0.000009 -0.489407 -0.993845 -26.162800 -22.291500 -0.000108 -0.000004 18.511200 5.423180 -3.707060 -2.192480 -6.469440 -0.000000 -179.868000 -9.612050 -23.903800 39.081100 -0.000007 -0.000012 0.017617 -0.022890 37.580000 40.985400 -0.000006 -0.000013 -1.048550 -0.436940 -62.363600 11.754300 -0.000000 0.000003 -0.002636 -0.036423 -18.057900 -2.192510 6.469440 -0.000001 179.429000 20.599300 170.367000 -39.081100 -0.002282 -0.040193 -0.007554 0.017396 31.956600 -40.985400 0.000008 0.000006 7.907500 6.713050 -72.706900 -11.754300 -0.000006 -0.000006 -0.006053 -0.071320 -19.475800
